<?xml version="1.0" encoding="utf-8" standalone="no"?>
<!DOCTYPE svg PUBLIC "-//W3C//DTD SVG 1.1//EN"
  "http://www.w3.org/Graphics/SVG/1.1/DTD/svg11.dtd">
<!-- Created with matplotlib (https://matplotlib.org/) -->
<svg height="345.6pt" version="1.1" viewBox="0 0 460.8 345.6" width="460.8pt" xmlns="http://www.w3.org/2000/svg" xmlns:xlink="http://www.w3.org/1999/xlink">
 <defs>
  <style type="text/css">
*{stroke-linecap:butt;stroke-linejoin:round;}
  </style>
 </defs>
 <g id="figure_1">
  <g id="patch_1">
   <path d="M 0 345.6 
L 460.8 345.6 
L 460.8 0 
L 0 0 
z
" style="fill:#ffffff;"/>
  </g>
  <g id="axes_1">
   <g id="patch_2">
    <path d="M 57.6 307.584 
L 414.72 307.584 
L 414.72 41.472 
L 57.6 41.472 
z
" style="fill:#ffffff;"/>
   </g>
   <g id="matplotlib.axis_1">
    <g id="xtick_1">
     <g id="line2d_1">
      <path clip-path="url(#pb5fbcb36f6)" d="M 90.065455 307.584 
L 90.065455 41.472 
" style="fill:none;stroke:#b0b0b0;stroke-dasharray:2.96,1.28;stroke-dashoffset:0;stroke-width:0.8;"/>
     </g>
     <g id="line2d_2">
      <defs>
       <path d="M 0 0 
L 0 3.5 
" id="mb4e89c0dd1" style="stroke:#000000;stroke-width:0.8;"/>
      </defs>
      <g>
       <use style="stroke:#000000;stroke-width:0.8;" x="90.065455" xlink:href="#mb4e89c0dd1" y="307.584"/>
      </g>
     </g>
     <g id="text_1">
      <!-- 1 -->
      <defs>
       <path d="M 21.875 56.25 
Q 16.796875 51.171875 8.984375 46.484375 
L 8.984375 53.90625 
Q 18.75 60.546875 25 69.53125 
L 29.6875 69.53125 
L 29.6875 2.34375 
L 21.875 2.34375 
z
" id="SimHei-49"/>
      </defs>
      <g transform="translate(87.565455 321.459)scale(0.1 -0.1)">
       <use xlink:href="#SimHei-49"/>
      </g>
     </g>
    </g>
    <g id="xtick_2">
     <g id="line2d_3">
      <path clip-path="url(#pb5fbcb36f6)" d="M 122.530909 307.584 
L 122.530909 41.472 
" style="fill:none;stroke:#b0b0b0;stroke-dasharray:2.96,1.28;stroke-dashoffset:0;stroke-width:0.8;"/>
     </g>
     <g id="line2d_4">
      <g>
       <use style="stroke:#000000;stroke-width:0.8;" x="122.530909" xlink:href="#mb4e89c0dd1" y="307.584"/>
      </g>
     </g>
     <g id="text_2">
      <!-- 2 -->
      <defs>
       <path d="M 4.6875 3.90625 
Q 5.078125 9.765625 10.15625 14.453125 
Q 15.234375 19.140625 23.046875 29.09375 
Q 30.859375 39.0625 33.203125 44.53125 
Q 35.546875 50 34.953125 53.90625 
Q 34.375 57.8125 31.25 60.34375 
Q 28.125 62.890625 24.015625 62.5 
Q 19.921875 62.109375 16.203125 59.375 
Q 12.5 56.640625 10.546875 51.171875 
L 3.125 52.34375 
Q 6.25 61.328125 11.125 65.421875 
Q 16.015625 69.53125 22.65625 69.921875 
Q 26.5625 70.3125 29.6875 69.71875 
Q 32.8125 69.140625 36.125 66.984375 
Q 39.453125 64.84375 41.59375 60.546875 
Q 43.75 56.25 43.15625 50.1875 
Q 42.578125 44.140625 37.109375 35.734375 
Q 31.640625 27.34375 16.015625 9.375 
L 44.140625 9.375 
L 44.140625 2.34375 
L 4.6875 2.34375 
z
" id="SimHei-50"/>
      </defs>
      <g transform="translate(120.030909 321.459)scale(0.1 -0.1)">
       <use xlink:href="#SimHei-50"/>
      </g>
     </g>
    </g>
    <g id="xtick_3">
     <g id="line2d_5">
      <path clip-path="url(#pb5fbcb36f6)" d="M 154.996364 307.584 
L 154.996364 41.472 
" style="fill:none;stroke:#b0b0b0;stroke-dasharray:2.96,1.28;stroke-dashoffset:0;stroke-width:0.8;"/>
     </g>
     <g id="line2d_6">
      <g>
       <use style="stroke:#000000;stroke-width:0.8;" x="154.996364" xlink:href="#mb4e89c0dd1" y="307.584"/>
      </g>
     </g>
     <g id="text_3">
      <!-- 3 -->
      <defs>
       <path d="M 3.90625 19.140625 
L 10.9375 20.3125 
Q 12.5 15.234375 16.015625 11.90625 
Q 19.53125 8.59375 24.796875 8.78125 
Q 30.078125 8.984375 33.203125 13.078125 
Q 36.328125 17.1875 35.9375 22.453125 
Q 35.546875 27.734375 31.828125 30.65625 
Q 28.125 33.59375 19.921875 34.765625 
L 19.921875 39.84375 
Q 28.125 40.625 31.828125 44.140625 
Q 35.546875 47.65625 35.15625 53.3125 
Q 34.765625 58.984375 30.078125 61.515625 
Q 25.390625 64.0625 20.109375 62.109375 
Q 14.84375 60.15625 11.71875 51.171875 
L 4.6875 52.34375 
Q 7.03125 59.375 11.125 64.0625 
Q 15.234375 68.75 22.265625 69.53125 
Q 29.296875 70.3125 34.5625 67.765625 
Q 39.84375 65.234375 41.984375 59.953125 
Q 44.140625 54.6875 42.578125 48.4375 
Q 41.015625 42.1875 33.59375 37.5 
Q 39.0625 35.15625 41.984375 30.46875 
Q 44.921875 25.78125 43.9375 18.15625 
Q 42.96875 10.546875 37.109375 5.859375 
Q 31.25 1.171875 23.828125 1.359375 
Q 16.40625 1.5625 10.9375 6.046875 
Q 5.46875 10.546875 3.90625 19.140625 
z
" id="SimHei-51"/>
      </defs>
      <g transform="translate(152.496364 321.459)scale(0.1 -0.1)">
       <use xlink:href="#SimHei-51"/>
      </g>
     </g>
    </g>
    <g id="xtick_4">
     <g id="line2d_7">
      <path clip-path="url(#pb5fbcb36f6)" d="M 187.461818 307.584 
L 187.461818 41.472 
" style="fill:none;stroke:#b0b0b0;stroke-dasharray:2.96,1.28;stroke-dashoffset:0;stroke-width:0.8;"/>
     </g>
     <g id="line2d_8">
      <g>
       <use style="stroke:#000000;stroke-width:0.8;" x="187.461818" xlink:href="#mb4e89c0dd1" y="307.584"/>
      </g>
     </g>
     <g id="text_4">
      <!-- 4 -->
      <defs>
       <path d="M 31.25 17.1875 
L 1.171875 17.1875 
L 1.171875 23.828125 
L 32.8125 69.53125 
L 38.671875 69.53125 
L 38.671875 23.828125 
L 48.046875 23.828125 
L 48.046875 17.1875 
L 38.671875 17.1875 
L 38.671875 2.34375 
L 31.25 2.34375 
z
M 31.25 23.828125 
L 31.25 54.6875 
L 9.375 23.828125 
z
" id="SimHei-52"/>
      </defs>
      <g transform="translate(184.961818 321.459)scale(0.1 -0.1)">
       <use xlink:href="#SimHei-52"/>
      </g>
     </g>
    </g>
    <g id="xtick_5">
     <g id="line2d_9">
      <path clip-path="url(#pb5fbcb36f6)" d="M 219.927273 307.584 
L 219.927273 41.472 
" style="fill:none;stroke:#b0b0b0;stroke-dasharray:2.96,1.28;stroke-dashoffset:0;stroke-width:0.8;"/>
     </g>
     <g id="line2d_10">
      <g>
       <use style="stroke:#000000;stroke-width:0.8;" x="219.927273" xlink:href="#mb4e89c0dd1" y="307.584"/>
      </g>
     </g>
     <g id="text_5">
      <!-- 5 -->
      <defs>
       <path d="M 8.59375 20.703125 
Q 11.328125 10.15625 17.96875 8.984375 
Q 24.609375 7.8125 28.703125 10.34375 
Q 32.8125 12.890625 34.5625 16.984375 
Q 36.328125 21.09375 36.125 26.171875 
Q 35.9375 31.25 33.390625 34.765625 
Q 30.859375 38.28125 26.953125 39.453125 
Q 23.046875 40.625 18.15625 39.453125 
Q 13.28125 38.28125 10.15625 33.984375 
L 3.515625 34.765625 
Q 4.296875 37.109375 10.9375 68.359375 
L 41.796875 68.359375 
L 41.796875 61.328125 
L 16.796875 61.328125 
Q 14.84375 50.78125 12.890625 44.53125 
Q 18.75 47.265625 23.828125 47.0625 
Q 28.90625 46.875 33.59375 44.71875 
Q 38.28125 42.578125 40.421875 38.859375 
Q 42.578125 35.15625 43.546875 31.4375 
Q 44.53125 27.734375 44.328125 23.4375 
Q 44.140625 19.140625 42.578125 14.640625 
Q 41.015625 10.15625 37.890625 7.21875 
Q 34.765625 4.296875 30.265625 2.53125 
Q 25.78125 0.78125 19.921875 1.171875 
Q 14.0625 1.5625 8.78125 5.46875 
Q 3.515625 9.375 1.5625 18.75 
z
" id="SimHei-53"/>
      </defs>
      <g transform="translate(217.427273 321.459)scale(0.1 -0.1)">
       <use xlink:href="#SimHei-53"/>
      </g>
     </g>
    </g>
    <g id="xtick_6">
     <g id="line2d_11">
      <path clip-path="url(#pb5fbcb36f6)" d="M 252.392727 307.584 
L 252.392727 41.472 
" style="fill:none;stroke:#b0b0b0;stroke-dasharray:2.96,1.28;stroke-dashoffset:0;stroke-width:0.8;"/>
     </g>
     <g id="line2d_12">
      <g>
       <use style="stroke:#000000;stroke-width:0.8;" x="252.392727" xlink:href="#mb4e89c0dd1" y="307.584"/>
      </g>
     </g>
     <g id="text_6">
      <!-- 6 -->
      <defs>
       <path d="M 3.515625 19.53125 
Q 4.296875 30.859375 6.046875 34.765625 
Q 7.8125 38.671875 11.328125 44.53125 
L 27.34375 69.53125 
L 36.328125 69.53125 
L 19.921875 43.75 
Q 30.46875 46.484375 36.71875 42.96875 
Q 42.96875 39.453125 45.109375 34.953125 
Q 47.265625 30.46875 47.453125 25.1875 
Q 47.65625 19.921875 45.890625 14.84375 
Q 44.140625 9.765625 39.640625 5.65625 
Q 35.15625 1.5625 27.140625 1.171875 
Q 19.140625 0.78125 13.46875 4.09375 
Q 7.8125 7.421875 5.65625 13.46875 
Q 3.515625 19.53125 4.296875 30.859375 
z
M 12.5 16.015625 
Q 19.53125 8.59375 25.390625 8.203125 
Q 31.25 7.8125 35.15625 12.109375 
Q 39.0625 16.40625 39.0625 24.609375 
Q 39.0625 32.8125 34.171875 35.9375 
Q 29.296875 39.0625 23.234375 38.28125 
Q 17.1875 37.5 14.453125 32.421875 
Q 11.71875 27.34375 12.109375 21.671875 
Q 12.5 16.015625 19.53125 8.59375 
z
" id="SimHei-54"/>
      </defs>
      <g transform="translate(249.892727 321.459)scale(0.1 -0.1)">
       <use xlink:href="#SimHei-54"/>
      </g>
     </g>
    </g>
    <g id="xtick_7">
     <g id="line2d_13">
      <path clip-path="url(#pb5fbcb36f6)" d="M 284.858182 307.584 
L 284.858182 41.472 
" style="fill:none;stroke:#b0b0b0;stroke-dasharray:2.96,1.28;stroke-dashoffset:0;stroke-width:0.8;"/>
     </g>
     <g id="line2d_14">
      <g>
       <use style="stroke:#000000;stroke-width:0.8;" x="284.858182" xlink:href="#mb4e89c0dd1" y="307.584"/>
      </g>
     </g>
     <g id="text_7">
      <!-- 7 -->
      <defs>
       <path d="M 13.28125 2.34375 
Q 20.3125 32.03125 37.890625 61.328125 
L 4.296875 61.328125 
L 4.296875 68.359375 
L 46.09375 68.359375 
L 46.09375 61.71875 
Q 27.734375 32.03125 21.875 2.34375 
L 13.28125 2.34375 
z
" id="SimHei-55"/>
      </defs>
      <g transform="translate(282.358182 321.459)scale(0.1 -0.1)">
       <use xlink:href="#SimHei-55"/>
      </g>
     </g>
    </g>
    <g id="xtick_8">
     <g id="line2d_15">
      <path clip-path="url(#pb5fbcb36f6)" d="M 317.323636 307.584 
L 317.323636 41.472 
" style="fill:none;stroke:#b0b0b0;stroke-dasharray:2.96,1.28;stroke-dashoffset:0;stroke-width:0.8;"/>
     </g>
     <g id="line2d_16">
      <g>
       <use style="stroke:#000000;stroke-width:0.8;" x="317.323636" xlink:href="#mb4e89c0dd1" y="307.584"/>
      </g>
     </g>
     <g id="text_8">
      <!-- 8 -->
      <defs>
       <path d="M 2.734375 16.796875 
Q 2.734375 26.171875 5.078125 30.65625 
Q 7.421875 35.15625 12.890625 37.890625 
Q 8.203125 40.625 6.640625 43.9375 
Q 5.078125 47.265625 4.875 51.5625 
Q 4.6875 55.859375 6.046875 58.984375 
Q 7.421875 62.109375 10.15625 64.84375 
Q 12.890625 67.578125 16.203125 68.546875 
Q 19.53125 69.53125 23.4375 69.53125 
Q 27.34375 69.53125 30.46875 68.75 
Q 33.59375 67.96875 37.109375 65.421875 
Q 40.625 62.890625 42.1875 58.203125 
Q 43.75 53.515625 41.984375 47.265625 
Q 40.234375 41.015625 32.8125 37.5 
Q 39.453125 35.546875 42.1875 31.4375 
Q 44.921875 27.34375 44.921875 21.484375 
Q 44.921875 15.625 43.15625 12.109375 
Q 41.40625 8.59375 39.25 6.25 
Q 37.109375 3.90625 33.390625 2.53125 
Q 29.6875 1.171875 24.015625 1.171875 
Q 18.359375 1.171875 14.25 2.53125 
Q 10.15625 3.90625 7.421875 6.640625 
Q 4.6875 9.375 3.703125 13.078125 
Q 2.734375 16.796875 2.734375 26.171875 
z
M 10.9375 26.5625 
Q 10.546875 17.1875 12.296875 13.671875 
Q 14.0625 10.15625 18.75 9.171875 
Q 23.4375 8.203125 28.515625 9.375 
Q 33.59375 10.546875 35.546875 14.84375 
Q 37.5 19.140625 36.90625 23.4375 
Q 36.328125 27.734375 32.03125 30.65625 
Q 27.734375 33.59375 22.65625 33.203125 
Q 17.578125 32.8125 14.25 29.6875 
Q 10.9375 26.5625 10.546875 17.1875 
z
M 12.109375 56.25 
Q 12.109375 48.4375 14.84375 44.921875 
Q 17.578125 41.40625 23.4375 41.40625 
Q 29.296875 41.40625 32.21875 44.921875 
Q 35.15625 48.4375 34.953125 53.3125 
Q 34.765625 58.203125 31.4375 60.546875 
Q 28.125 62.890625 22.453125 62.5 
Q 16.796875 62.109375 14.453125 59.171875 
Q 12.109375 56.25 12.109375 48.4375 
z
" id="SimHei-56"/>
      </defs>
      <g transform="translate(314.823636 321.459)scale(0.1 -0.1)">
       <use xlink:href="#SimHei-56"/>
      </g>
     </g>
    </g>
    <g id="xtick_9">
     <g id="line2d_17">
      <path clip-path="url(#pb5fbcb36f6)" d="M 349.789091 307.584 
L 349.789091 41.472 
" style="fill:none;stroke:#b0b0b0;stroke-dasharray:2.96,1.28;stroke-dashoffset:0;stroke-width:0.8;"/>
     </g>
     <g id="line2d_18">
      <g>
       <use style="stroke:#000000;stroke-width:0.8;" x="349.789091" xlink:href="#mb4e89c0dd1" y="307.584"/>
      </g>
     </g>
     <g id="text_9">
      <!-- 9 -->
      <defs>
       <path d="M 12.5 1.171875 
Q 21.09375 15.625 26.5625 27.34375 
Q 16.796875 25.78125 10.34375 29.875 
Q 3.90625 33.984375 2.53125 41.015625 
Q 1.171875 48.046875 2.734375 53.703125 
Q 4.296875 59.375 7.609375 63.078125 
Q 10.9375 66.796875 15.625 68.359375 
Q 20.3125 69.921875 24.015625 69.921875 
Q 27.734375 69.921875 31.640625 68.359375 
Q 35.546875 66.796875 38.671875 63.671875 
Q 41.796875 60.546875 42.96875 57.21875 
Q 44.140625 53.90625 44.140625 48.625 
Q 44.140625 43.359375 40.234375 35.15625 
Q 36.328125 26.953125 21.09375 1.171875 
z
M 9.765625 50 
Q 10.9375 39.84375 14.640625 36.515625 
Q 18.359375 33.203125 22.65625 33.59375 
Q 26.953125 33.984375 29.484375 35.9375 
Q 32.03125 37.890625 34.375 42.578125 
Q 35.9375 48.4375 35.15625 52.53125 
Q 34.375 56.640625 31.046875 59.375 
Q 27.734375 62.109375 23.828125 62.109375 
Q 21.484375 62.5 17.765625 60.9375 
Q 14.0625 59.375 11.90625 54.6875 
Q 9.765625 50 10.9375 39.84375 
z
" id="SimHei-57"/>
      </defs>
      <g transform="translate(347.289091 321.459)scale(0.1 -0.1)">
       <use xlink:href="#SimHei-57"/>
      </g>
     </g>
    </g>
    <g id="xtick_10">
     <g id="line2d_19">
      <path clip-path="url(#pb5fbcb36f6)" d="M 382.254545 307.584 
L 382.254545 41.472 
" style="fill:none;stroke:#b0b0b0;stroke-dasharray:2.96,1.28;stroke-dashoffset:0;stroke-width:0.8;"/>
     </g>
     <g id="line2d_20">
      <g>
       <use style="stroke:#000000;stroke-width:0.8;" x="382.254545" xlink:href="#mb4e89c0dd1" y="307.584"/>
      </g>
     </g>
     <g id="text_10">
      <!-- 10 -->
      <defs>
       <path d="M 3.125 29.296875 
Q 3.90625 50 6.4375 56.046875 
Q 8.984375 62.109375 13.671875 66.015625 
Q 18.359375 69.921875 25.1875 69.921875 
Q 32.03125 69.921875 37.109375 64.25 
Q 42.1875 58.59375 43.75 50 
Q 45.3125 41.40625 44.71875 30.265625 
Q 44.140625 19.140625 40.8125 12.109375 
Q 37.5 5.078125 30.859375 2.34375 
Q 24.21875 -0.390625 17.578125 2.921875 
Q 10.9375 6.25 8.203125 11.71875 
Q 5.46875 17.1875 4.296875 23.234375 
Q 3.125 29.296875 3.90625 50 
z
M 12.890625 52.734375 
Q 10.546875 31.25 12.5 22.84375 
Q 14.453125 14.453125 18.9375 10.9375 
Q 23.4375 7.421875 28.125 9.5625 
Q 32.8125 11.71875 34.953125 18.15625 
Q 37.109375 24.609375 37.109375 32.21875 
Q 37.109375 39.84375 36.515625 46.09375 
Q 35.9375 52.34375 33 57.421875 
Q 30.078125 62.5 25.1875 62.6875 
Q 20.3125 62.890625 16.59375 57.8125 
Q 12.890625 52.734375 10.546875 31.25 
z
" id="SimHei-48"/>
      </defs>
      <g transform="translate(377.254545 321.459)scale(0.1 -0.1)">
       <use xlink:href="#SimHei-49"/>
       <use x="50" xlink:href="#SimHei-48"/>
      </g>
     </g>
    </g>
    <g id="text_11">
     <!-- Top-k -->
     <defs>
      <path d="M 44.53125 61.328125 
L 28.90625 61.328125 
L 28.90625 1.953125 
L 19.921875 1.953125 
L 19.921875 61.328125 
L 4.296875 61.328125 
L 4.296875 68.75 
L 44.53125 68.75 
z
" id="SimHei-84"/>
      <path d="M 45.703125 23.828125 
Q 45.703125 13.671875 39.453125 7.421875 
Q 33.203125 1.171875 24.609375 1.171875 
Q 16.015625 1.171875 9.765625 7.421875 
Q 3.515625 13.671875 3.515625 23.828125 
Q 3.515625 33.984375 9.765625 40.234375 
Q 16.015625 46.484375 24.609375 46.484375 
Q 33.203125 46.484375 39.453125 40.234375 
Q 45.703125 33.984375 45.703125 23.828125 
z
M 37.109375 23.828125 
Q 37.109375 31.640625 33.203125 35.546875 
Q 29.296875 39.453125 24.609375 39.453125 
Q 19.921875 39.453125 16.015625 35.546875 
Q 12.109375 31.640625 12.109375 23.828125 
Q 12.109375 16.015625 16.015625 12.109375 
Q 19.921875 8.203125 24.609375 8.203125 
Q 29.296875 8.203125 33.203125 12.109375 
Q 37.109375 16.015625 37.109375 23.828125 
z
" id="SimHei-111"/>
      <path d="M 44.140625 23.828125 
Q 44.140625 12.5 38.671875 6.640625 
Q 33.203125 0.78125 25.390625 0.78125 
Q 21.09375 0.78125 17.96875 2.53125 
Q 14.84375 4.296875 12.5 7.8125 
L 12.5 -12.5 
L 4.6875 -12.5 
L 4.6875 45.703125 
L 12.5 45.703125 
L 12.5 39.84375 
Q 14.84375 43.359375 17.96875 44.921875 
Q 21.09375 46.484375 25.390625 46.484375 
Q 33.203125 46.484375 38.671875 40.8125 
Q 44.140625 35.15625 44.140625 23.828125 
z
M 35.546875 23.828125 
Q 35.546875 31.25 32.609375 35.34375 
Q 29.6875 39.453125 23.828125 39.453125 
Q 19.140625 39.453125 15.8125 35.34375 
Q 12.5 31.25 12.5 23.828125 
Q 12.5 16.40625 15.8125 12.109375 
Q 19.140625 7.8125 23.828125 7.8125 
Q 29.6875 7.8125 32.609375 12.109375 
Q 35.546875 16.40625 35.546875 23.828125 
z
" id="SimHei-112"/>
      <path d="M 46.484375 33.203125 
L 1.953125 33.203125 
L 1.953125 39.453125 
L 46.484375 39.453125 
z
" id="SimHei-45"/>
      <path d="M 45.703125 1.953125 
L 36.71875 1.953125 
L 22.65625 25.78125 
L 13.671875 17.1875 
L 13.671875 1.953125 
L 5.859375 1.953125 
L 5.859375 68.75 
L 13.671875 68.75 
L 13.671875 26.171875 
L 33.203125 45.703125 
L 42.96875 45.703125 
L 27.734375 30.859375 
z
" id="SimHei-107"/>
     </defs>
     <g transform="translate(219.91 335.6465)scale(0.13 -0.13)">
      <use xlink:href="#SimHei-84"/>
      <use x="50" xlink:href="#SimHei-111"/>
      <use x="100" xlink:href="#SimHei-112"/>
      <use x="150" xlink:href="#SimHei-45"/>
      <use x="200" xlink:href="#SimHei-107"/>
     </g>
    </g>
   </g>
   <g id="matplotlib.axis_2">
    <g id="ytick_1">
     <g id="line2d_21">
      <path clip-path="url(#pb5fbcb36f6)" d="M 57.6 307.584 
L 414.72 307.584 
" style="fill:none;stroke:#b0b0b0;stroke-dasharray:2.96,1.28;stroke-dashoffset:0;stroke-width:0.8;"/>
     </g>
     <g id="line2d_22">
      <defs>
       <path d="M 0 0 
L -3.5 0 
" id="me9a05072fe" style="stroke:#000000;stroke-width:0.8;"/>
      </defs>
      <g>
       <use style="stroke:#000000;stroke-width:0.8;" x="57.6" xlink:href="#me9a05072fe" y="307.584"/>
      </g>
     </g>
     <g id="text_12">
      <!-- 0.0 -->
      <defs>
       <path d="M 16.796875 1.953125 
L 7.8125 1.953125 
L 7.8125 10.546875 
L 16.796875 10.546875 
z
" id="SimHei-46"/>
      </defs>
      <g transform="translate(35.6 311.0215)scale(0.1 -0.1)">
       <use xlink:href="#SimHei-48"/>
       <use x="50" xlink:href="#SimHei-46"/>
       <use x="100" xlink:href="#SimHei-48"/>
      </g>
     </g>
    </g>
    <g id="ytick_2">
     <g id="line2d_23">
      <path clip-path="url(#pb5fbcb36f6)" d="M 57.6 254.3616 
L 414.72 254.3616 
" style="fill:none;stroke:#b0b0b0;stroke-dasharray:2.96,1.28;stroke-dashoffset:0;stroke-width:0.8;"/>
     </g>
     <g id="line2d_24">
      <g>
       <use style="stroke:#000000;stroke-width:0.8;" x="57.6" xlink:href="#me9a05072fe" y="254.3616"/>
      </g>
     </g>
     <g id="text_13">
      <!-- 0.2 -->
      <g transform="translate(35.6 257.7991)scale(0.1 -0.1)">
       <use xlink:href="#SimHei-48"/>
       <use x="50" xlink:href="#SimHei-46"/>
       <use x="100" xlink:href="#SimHei-50"/>
      </g>
     </g>
    </g>
    <g id="ytick_3">
     <g id="line2d_25">
      <path clip-path="url(#pb5fbcb36f6)" d="M 57.6 201.1392 
L 414.72 201.1392 
" style="fill:none;stroke:#b0b0b0;stroke-dasharray:2.96,1.28;stroke-dashoffset:0;stroke-width:0.8;"/>
     </g>
     <g id="line2d_26">
      <g>
       <use style="stroke:#000000;stroke-width:0.8;" x="57.6" xlink:href="#me9a05072fe" y="201.1392"/>
      </g>
     </g>
     <g id="text_14">
      <!-- 0.4 -->
      <g transform="translate(35.6 204.5767)scale(0.1 -0.1)">
       <use xlink:href="#SimHei-48"/>
       <use x="50" xlink:href="#SimHei-46"/>
       <use x="100" xlink:href="#SimHei-52"/>
      </g>
     </g>
    </g>
    <g id="ytick_4">
     <g id="line2d_27">
      <path clip-path="url(#pb5fbcb36f6)" d="M 57.6 147.9168 
L 414.72 147.9168 
" style="fill:none;stroke:#b0b0b0;stroke-dasharray:2.96,1.28;stroke-dashoffset:0;stroke-width:0.8;"/>
     </g>
     <g id="line2d_28">
      <g>
       <use style="stroke:#000000;stroke-width:0.8;" x="57.6" xlink:href="#me9a05072fe" y="147.9168"/>
      </g>
     </g>
     <g id="text_15">
      <!-- 0.6 -->
      <g transform="translate(35.6 151.3543)scale(0.1 -0.1)">
       <use xlink:href="#SimHei-48"/>
       <use x="50" xlink:href="#SimHei-46"/>
       <use x="100" xlink:href="#SimHei-54"/>
      </g>
     </g>
    </g>
    <g id="ytick_5">
     <g id="line2d_29">
      <path clip-path="url(#pb5fbcb36f6)" d="M 57.6 94.6944 
L 414.72 94.6944 
" style="fill:none;stroke:#b0b0b0;stroke-dasharray:2.96,1.28;stroke-dashoffset:0;stroke-width:0.8;"/>
     </g>
     <g id="line2d_30">
      <g>
       <use style="stroke:#000000;stroke-width:0.8;" x="57.6" xlink:href="#me9a05072fe" y="94.6944"/>
      </g>
     </g>
     <g id="text_16">
      <!-- 0.8 -->
      <g transform="translate(35.6 98.1319)scale(0.1 -0.1)">
       <use xlink:href="#SimHei-48"/>
       <use x="50" xlink:href="#SimHei-46"/>
       <use x="100" xlink:href="#SimHei-56"/>
      </g>
     </g>
    </g>
    <g id="ytick_6">
     <g id="line2d_31">
      <path clip-path="url(#pb5fbcb36f6)" d="M 57.6 41.472 
L 414.72 41.472 
" style="fill:none;stroke:#b0b0b0;stroke-dasharray:2.96,1.28;stroke-dashoffset:0;stroke-width:0.8;"/>
     </g>
     <g id="line2d_32">
      <g>
       <use style="stroke:#000000;stroke-width:0.8;" x="57.6" xlink:href="#me9a05072fe" y="41.472"/>
      </g>
     </g>
     <g id="text_17">
      <!-- 1.0 -->
      <g transform="translate(35.6 44.9095)scale(0.1 -0.1)">
       <use xlink:href="#SimHei-49"/>
       <use x="50" xlink:href="#SimHei-46"/>
       <use x="100" xlink:href="#SimHei-48"/>
      </g>
     </g>
    </g>
    <g id="text_18">
     <!-- 命中率 -->
     <defs>
      <path d="M 46.09375 40.234375 
Q 45.703125 36.328125 45.703125 29.296875 
L 45.703125 16.40625 
Q 45.703125 8.984375 46.09375 5.859375 
L 38.671875 5.859375 
L 38.671875 10.546875 
L 24.609375 10.546875 
L 24.609375 2.734375 
L 17.1875 2.734375 
Q 17.578125 8.203125 17.578125 14.84375 
L 17.578125 28.515625 
Q 17.578125 35.546875 17.1875 40.234375 
L 46.09375 40.234375 
z
M 53.90625 76.171875 
Q 57.8125 70.3125 62.890625 66.015625 
Q 67.96875 61.71875 75 57.8125 
Q 82.03125 53.90625 95.703125 49.609375 
Q 92.96875 47.265625 90.234375 42.1875 
Q 82.03125 45.3125 75.78125 48.828125 
Q 69.53125 52.34375 64.453125 55.859375 
Q 59.375 59.375 55.859375 63.28125 
Q 52.34375 67.1875 49.609375 71.09375 
Q 41.015625 60.546875 31.4375 53.515625 
Q 21.875 46.484375 9.375 40.234375 
Q 7.8125 43.75 4.6875 46.875 
Q 12.109375 49.21875 19.328125 53.515625 
Q 26.5625 57.8125 32.03125 62.5 
Q 37.5 67.1875 41.59375 72.453125 
Q 45.703125 77.734375 48.046875 82.8125 
L 56.25 78.90625 
Q 55.859375 78.515625 53.90625 76.171875 
z
M 54.6875 28.90625 
Q 54.296875 36.71875 54.296875 40.234375 
L 84.765625 40.234375 
Q 84.375 36.71875 84.375 30.078125 
L 84.375 14.453125 
Q 84.375 9.765625 81.25 6.828125 
Q 78.125 3.90625 69.921875 3.515625 
Q 69.140625 8.203125 66.796875 11.71875 
Q 74.609375 11.71875 75.78125 12.6875 
Q 76.953125 13.671875 77.34375 17.1875 
L 77.34375 34.375 
L 61.71875 34.375 
L 61.71875 -10.15625 
L 54.296875 -10.15625 
Q 54.296875 -2.34375 54.6875 6.25 
z
M 38.671875 16.40625 
L 38.671875 34.375 
L 24.609375 34.375 
L 24.609375 16.40625 
z
M 68.75 52.34375 
L 68.75 45.703125 
Q 58.984375 46.09375 57.421875 46.09375 
L 32.421875 46.09375 
L 32.421875 52.734375 
Q 34.375 52.734375 41.796875 52.34375 
z
" id="SimHei-21629"/>
      <path d="M 54.296875 81.25 
Q 53.90625 70.3125 53.90625 60.546875 
L 87.890625 60.546875 
Q 87.5 52.734375 87.5 39.0625 
Q 87.5 25.78125 87.890625 19.140625 
L 79.296875 19.140625 
L 79.296875 25 
L 53.90625 25 
L 53.90625 8.203125 
Q 53.90625 3.515625 54.296875 -9.375 
L 44.921875 -9.375 
Q 45.703125 -2.34375 45.703125 7.03125 
L 45.703125 25 
L 20.3125 25 
L 20.3125 19.140625 
L 11.71875 19.140625 
Q 12.109375 25 12.109375 39.0625 
Q 12.109375 53.515625 11.71875 60.546875 
L 45.703125 60.546875 
Q 45.703125 71.09375 45.3125 81.25 
z
M 79.296875 31.25 
L 79.296875 54.296875 
L 53.90625 54.296875 
L 53.90625 31.25 
z
M 45.703125 31.25 
L 45.703125 54.296875 
L 20.3125 54.296875 
L 20.3125 31.25 
z
" id="SimHei-20013"/>
      <path d="M 51.953125 80.46875 
Q 53.515625 76.5625 55.46875 70.703125 
L 75 70.703125 
Q 82.03125 70.703125 90.625 71.09375 
L 90.625 64.453125 
Q 82.03125 65.234375 74.609375 65.234375 
L 43.75 65.234375 
Q 46.484375 63.28125 51.5625 60.9375 
Q 48.046875 58.59375 44.921875 55.265625 
Q 41.796875 51.953125 38.671875 48.828125 
L 51.171875 48.828125 
Q 55.859375 53.515625 58.984375 58.984375 
Q 62.5 56.25 66.796875 53.515625 
Q 61.71875 50.78125 56.25 44.921875 
Q 50.78125 39.0625 41.015625 31.25 
L 60.15625 32.8125 
Q 58.203125 35.15625 56.25 37.890625 
Q 58.59375 38.671875 62.5 41.40625 
Q 66.40625 36.71875 73.4375 26.5625 
Q 69.921875 25.390625 66.015625 22.65625 
Q 65.234375 25 62.890625 27.734375 
Q 57.8125 27.34375 53.515625 27.34375 
L 53.515625 16.40625 
L 80.46875 16.40625 
Q 88.671875 16.40625 95.3125 16.796875 
L 95.3125 10.15625 
Q 89.0625 10.546875 80.078125 10.546875 
L 53.515625 10.546875 
L 53.515625 2.734375 
Q 53.515625 -4.6875 53.90625 -9.765625 
L 45.3125 -9.765625 
Q 45.703125 -4.6875 45.703125 2.734375 
L 45.703125 10.546875 
L 20.703125 10.546875 
Q 12.890625 10.546875 5.078125 10.15625 
L 5.078125 16.796875 
Q 12.890625 16.40625 21.09375 16.40625 
L 45.703125 16.40625 
L 45.703125 26.5625 
Q 42.1875 26.171875 38.671875 25.578125 
Q 35.15625 25 31.640625 23.828125 
Q 30.46875 27.734375 28.90625 31.25 
Q 32.421875 31.640625 36.328125 34.375 
Q 40.234375 37.109375 46.484375 43.75 
Q 35.9375 42.578125 31.640625 41.015625 
Q 30.859375 44.921875 28.90625 49.609375 
Q 32.421875 49.609375 36.328125 54.484375 
Q 40.234375 59.375 42.96875 65.234375 
L 26.5625 65.234375 
Q 17.96875 65.234375 10.15625 64.453125 
L 10.15625 71.09375 
Q 17.96875 70.703125 24.21875 70.703125 
L 46.484375 70.703125 
Q 45.3125 75.390625 43.75 78.515625 
Q 47.265625 79.296875 51.953125 80.46875 
z
M 25.390625 40.234375 
Q 26.953125 37.5 28.515625 34.375 
Q 24.609375 32.03125 20.703125 29.09375 
Q 16.796875 26.171875 12.5 22.265625 
Q 9.765625 26.171875 7.421875 29.296875 
Q 12.5 31.640625 17.1875 34.5625 
Q 21.875 37.5 25.390625 40.234375 
z
M 75.78125 41.40625 
Q 80.078125 38.671875 83.390625 36.515625 
Q 86.71875 34.375 91.796875 30.46875 
Q 88.671875 28.125 85.9375 25 
Q 82.8125 27.734375 79.09375 30.859375 
Q 75.390625 33.984375 71.484375 36.328125 
Q 73.828125 38.671875 75.78125 41.40625 
z
M 89.453125 55.078125 
Q 86.71875 53.90625 82.8125 50.96875 
Q 78.90625 48.046875 75 44.140625 
Q 72.265625 47.65625 69.921875 49.609375 
Q 73.4375 51.953125 76.171875 54.484375 
Q 78.90625 57.03125 82.8125 61.328125 
Q 86.328125 57.8125 89.453125 55.078125 
z
M 16.40625 60.15625 
Q 22.265625 56.25 27.734375 51.171875 
Q 24.609375 48.4375 22.265625 45.703125 
Q 16.796875 51.5625 10.546875 55.078125 
Q 13.671875 57.8125 16.40625 60.15625 
z
" id="SimHei-29575"/>
     </defs>
     <g transform="translate(29.975 194.028)rotate(-90)scale(0.13 -0.13)">
      <use xlink:href="#SimHei-21629"/>
      <use x="100" xlink:href="#SimHei-20013"/>
      <use x="200" xlink:href="#SimHei-29575"/>
     </g>
    </g>
   </g>
   <g id="line2d_33">
    <path clip-path="url(#pb5fbcb36f6)" d="M 90.065455 260.109619 
L 219.927273 210.639398 
L 382.254545 196.588685 
" style="fill:none;stroke:#ff0000;stroke-dasharray:5.55,2.4;stroke-dashoffset:0;stroke-width:1.5;"/>
    <defs>
     <path d="M 0 3 
C 0.795609 3 1.55874 2.683901 2.12132 2.12132 
C 2.683901 1.55874 3 0.795609 3 0 
C 3 -0.795609 2.683901 -1.55874 2.12132 -2.12132 
C 1.55874 -2.683901 0.795609 -3 0 -3 
C -0.795609 -3 -1.55874 -2.683901 -2.12132 -2.12132 
C -2.683901 -1.55874 -3 -0.795609 -3 0 
C -3 0.795609 -2.683901 1.55874 -2.12132 2.12132 
C -1.55874 2.683901 -0.795609 3 0 3 
z
" id="m5dfd3cf007" style="stroke:#ff0000;"/>
    </defs>
    <g clip-path="url(#pb5fbcb36f6)">
     <use style="fill:#ff0000;stroke:#ff0000;" x="90.065455" xlink:href="#m5dfd3cf007" y="260.109619"/>
     <use style="fill:#ff0000;stroke:#ff0000;" x="219.927273" xlink:href="#m5dfd3cf007" y="210.639398"/>
     <use style="fill:#ff0000;stroke:#ff0000;" x="382.254545" xlink:href="#m5dfd3cf007" y="196.588685"/>
    </g>
   </g>
   <g id="line2d_34">
    <path clip-path="url(#pb5fbcb36f6)" d="M 90.065455 240.204442 
L 219.927273 178.333402 
L 382.254545 159.120115 
" style="fill:none;stroke:#008000;stroke-dasharray:5.55,2.4;stroke-dashoffset:0;stroke-width:1.5;"/>
    <defs>
     <path d="M -0 3 
L 3 -3 
L -3 -3 
z
" id="m53ca15c86e" style="stroke:#008000;stroke-linejoin:miter;"/>
    </defs>
    <g clip-path="url(#pb5fbcb36f6)">
     <use style="fill:#008000;stroke:#008000;stroke-linejoin:miter;" x="90.065455" xlink:href="#m53ca15c86e" y="240.204442"/>
     <use style="fill:#008000;stroke:#008000;stroke-linejoin:miter;" x="219.927273" xlink:href="#m53ca15c86e" y="178.333402"/>
     <use style="fill:#008000;stroke:#008000;stroke-linejoin:miter;" x="382.254545" xlink:href="#m53ca15c86e" y="159.120115"/>
    </g>
   </g>
   <g id="line2d_35">
    <path clip-path="url(#pb5fbcb36f6)" d="M 90.065455 216.414029 
L 219.927273 149.939251 
L 382.254545 123.567552 
" style="fill:none;stroke:#bfbf00;stroke-dasharray:5.55,2.4;stroke-dashoffset:0;stroke-width:1.5;"/>
    <defs>
     <path d="M 0 -3 
L -3 3 
L 3 3 
z
" id="me2fe5e6a08" style="stroke:#bfbf00;stroke-linejoin:miter;"/>
    </defs>
    <g clip-path="url(#pb5fbcb36f6)">
     <use style="fill:#bfbf00;stroke:#bfbf00;stroke-linejoin:miter;" x="90.065455" xlink:href="#me2fe5e6a08" y="216.414029"/>
     <use style="fill:#bfbf00;stroke:#bfbf00;stroke-linejoin:miter;" x="219.927273" xlink:href="#me2fe5e6a08" y="149.939251"/>
     <use style="fill:#bfbf00;stroke:#bfbf00;stroke-linejoin:miter;" x="382.254545" xlink:href="#me2fe5e6a08" y="123.567552"/>
    </g>
   </g>
   <g id="line2d_36">
    <path clip-path="url(#pb5fbcb36f6)" d="M 90.065455 105.844493 
L 219.927273 61.616678 
L 382.254545 44.825011 
" style="fill:none;stroke:#0000ff;stroke-dasharray:5.55,2.4;stroke-dashoffset:0;stroke-width:1.5;"/>
    <defs>
     <path d="M -3 -0 
L 3 3 
L 3 -3 
z
" id="m7140d72cce" style="stroke:#0000ff;stroke-linejoin:miter;"/>
    </defs>
    <g clip-path="url(#pb5fbcb36f6)">
     <use style="fill:#0000ff;stroke:#0000ff;stroke-linejoin:miter;" x="90.065455" xlink:href="#m7140d72cce" y="105.844493"/>
     <use style="fill:#0000ff;stroke:#0000ff;stroke-linejoin:miter;" x="219.927273" xlink:href="#m7140d72cce" y="61.616678"/>
     <use style="fill:#0000ff;stroke:#0000ff;stroke-linejoin:miter;" x="382.254545" xlink:href="#m7140d72cce" y="44.825011"/>
    </g>
   </g>
   <g id="patch_3">
    <path d="M 57.6 307.584 
L 57.6 41.472 
" style="fill:none;stroke:#000000;stroke-linecap:square;stroke-linejoin:miter;stroke-width:0.8;"/>
   </g>
   <g id="patch_4">
    <path d="M 57.6 307.584 
L 414.72 307.584 
" style="fill:none;stroke:#000000;stroke-linecap:square;stroke-linejoin:miter;stroke-width:0.8;"/>
   </g>
   <g id="text_19">
    <!-- 0.1784 -->
    <g transform="translate(75.065455 258.859619)scale(0.1 -0.1)">
     <use xlink:href="#SimHei-48"/>
     <use x="50" xlink:href="#SimHei-46"/>
     <use x="100" xlink:href="#SimHei-49"/>
     <use x="150" xlink:href="#SimHei-55"/>
     <use x="200" xlink:href="#SimHei-56"/>
     <use x="250" xlink:href="#SimHei-52"/>
    </g>
   </g>
   <g id="text_20">
    <!-- 0.3643 -->
    <g transform="translate(204.927273 209.389398)scale(0.1 -0.1)">
     <use xlink:href="#SimHei-48"/>
     <use x="50" xlink:href="#SimHei-46"/>
     <use x="100" xlink:href="#SimHei-51"/>
     <use x="150" xlink:href="#SimHei-54"/>
     <use x="200" xlink:href="#SimHei-52"/>
     <use x="250" xlink:href="#SimHei-51"/>
    </g>
   </g>
   <g id="text_21">
    <!-- 0.4171 -->
    <g transform="translate(367.254545 195.338685)scale(0.1 -0.1)">
     <use xlink:href="#SimHei-48"/>
     <use x="50" xlink:href="#SimHei-46"/>
     <use x="100" xlink:href="#SimHei-52"/>
     <use x="150" xlink:href="#SimHei-49"/>
     <use x="200" xlink:href="#SimHei-55"/>
     <use x="250" xlink:href="#SimHei-49"/>
    </g>
   </g>
   <g id="text_22">
    <!-- 0.2532 -->
    <g transform="translate(75.065455 238.954442)scale(0.1 -0.1)">
     <use xlink:href="#SimHei-48"/>
     <use x="50" xlink:href="#SimHei-46"/>
     <use x="100" xlink:href="#SimHei-50"/>
     <use x="150" xlink:href="#SimHei-53"/>
     <use x="200" xlink:href="#SimHei-51"/>
     <use x="250" xlink:href="#SimHei-50"/>
    </g>
   </g>
   <g id="text_23">
    <!-- 0.4857 -->
    <g transform="translate(204.927273 177.083402)scale(0.1 -0.1)">
     <use xlink:href="#SimHei-48"/>
     <use x="50" xlink:href="#SimHei-46"/>
     <use x="100" xlink:href="#SimHei-52"/>
     <use x="150" xlink:href="#SimHei-56"/>
     <use x="200" xlink:href="#SimHei-53"/>
     <use x="250" xlink:href="#SimHei-55"/>
    </g>
   </g>
   <g id="text_24">
    <!-- 0.5579 -->
    <g transform="translate(367.254545 157.870115)scale(0.1 -0.1)">
     <use xlink:href="#SimHei-48"/>
     <use x="50" xlink:href="#SimHei-46"/>
     <use x="100" xlink:href="#SimHei-53"/>
     <use x="150" xlink:href="#SimHei-53"/>
     <use x="200" xlink:href="#SimHei-55"/>
     <use x="250" xlink:href="#SimHei-57"/>
    </g>
   </g>
   <g id="text_25">
    <!-- 0.3426 -->
    <g transform="translate(75.065455 215.164029)scale(0.1 -0.1)">
     <use xlink:href="#SimHei-48"/>
     <use x="50" xlink:href="#SimHei-46"/>
     <use x="100" xlink:href="#SimHei-51"/>
     <use x="150" xlink:href="#SimHei-52"/>
     <use x="200" xlink:href="#SimHei-50"/>
     <use x="250" xlink:href="#SimHei-54"/>
    </g>
   </g>
   <g id="text_26">
    <!-- 0.5924 -->
    <g transform="translate(204.927273 148.689251)scale(0.1 -0.1)">
     <use xlink:href="#SimHei-48"/>
     <use x="50" xlink:href="#SimHei-46"/>
     <use x="100" xlink:href="#SimHei-53"/>
     <use x="150" xlink:href="#SimHei-57"/>
     <use x="200" xlink:href="#SimHei-50"/>
     <use x="250" xlink:href="#SimHei-52"/>
    </g>
   </g>
   <g id="text_27">
    <!-- 0.6915 -->
    <g transform="translate(367.254545 122.317552)scale(0.1 -0.1)">
     <use xlink:href="#SimHei-48"/>
     <use x="50" xlink:href="#SimHei-46"/>
     <use x="100" xlink:href="#SimHei-54"/>
     <use x="150" xlink:href="#SimHei-57"/>
     <use x="200" xlink:href="#SimHei-49"/>
     <use x="250" xlink:href="#SimHei-53"/>
    </g>
   </g>
   <g id="text_28">
    <!-- 0.7581 -->
    <g transform="translate(75.065455 104.594493)scale(0.1 -0.1)">
     <use xlink:href="#SimHei-48"/>
     <use x="50" xlink:href="#SimHei-46"/>
     <use x="100" xlink:href="#SimHei-55"/>
     <use x="150" xlink:href="#SimHei-53"/>
     <use x="200" xlink:href="#SimHei-56"/>
     <use x="250" xlink:href="#SimHei-49"/>
    </g>
   </g>
   <g id="text_29">
    <!-- 0.9243 -->
    <g transform="translate(204.927273 60.366678)scale(0.1 -0.1)">
     <use xlink:href="#SimHei-48"/>
     <use x="50" xlink:href="#SimHei-46"/>
     <use x="100" xlink:href="#SimHei-57"/>
     <use x="150" xlink:href="#SimHei-50"/>
     <use x="200" xlink:href="#SimHei-52"/>
     <use x="250" xlink:href="#SimHei-51"/>
    </g>
   </g>
   <g id="text_30">
    <!-- 0.9874 -->
    <g transform="translate(367.254545 43.575011)scale(0.1 -0.1)">
     <use xlink:href="#SimHei-48"/>
     <use x="50" xlink:href="#SimHei-46"/>
     <use x="100" xlink:href="#SimHei-57"/>
     <use x="150" xlink:href="#SimHei-56"/>
     <use x="200" xlink:href="#SimHei-55"/>
     <use x="250" xlink:href="#SimHei-52"/>
    </g>
   </g>
   <g id="legend_1">
    <g id="patch_5">
     <path d="M 270.72 302.584 
L 407.72 302.584 
Q 409.72 302.584 409.72 300.584 
L 409.72 244.318375 
Q 409.72 242.318375 407.72 242.318375 
L 270.72 242.318375 
Q 268.72 242.318375 268.72 244.318375 
L 268.72 300.584 
Q 268.72 302.584 270.72 302.584 
z
" style="fill:#ffffff;opacity:0.8;stroke:#cccccc;stroke-linejoin:miter;"/>
    </g>
    <g id="line2d_37">
     <path d="M 272.72 250.826187 
L 292.72 250.826187 
" style="fill:none;stroke:#ff0000;stroke-dasharray:5.55,2.4;stroke-dashoffset:0;stroke-width:1.5;"/>
    </g>
    <g id="line2d_38">
     <g>
      <use style="fill:#ff0000;stroke:#ff0000;" x="282.72" xlink:href="#m5dfd3cf007" y="250.826187"/>
     </g>
    </g>
    <g id="text_31">
     <!-- 文献[20] -->
     <defs>
      <path d="M 19.53125 53.90625 
Q 11.328125 53.90625 5.46875 53.125 
L 5.46875 61.328125 
Q 14.453125 60.9375 21.875 60.9375 
L 77.34375 60.9375 
Q 84.375 60.9375 94.140625 61.328125 
L 94.140625 53.125 
Q 84.375 53.515625 72.265625 53.515625 
Q 70.3125 41.40625 65.234375 31.046875 
Q 60.15625 20.703125 54.296875 14.0625 
Q 61.71875 7.421875 73.828125 3.3125 
Q 85.9375 -0.78125 94.921875 -1.5625 
Q 91.40625 -4.296875 88.671875 -9.765625 
Q 82.03125 -8.203125 71.484375 -4.296875 
Q 60.9375 -0.390625 48.828125 8.984375 
Q 32.8125 -4.296875 10.546875 -10.546875 
Q 9.765625 -7.03125 5.078125 -2.734375 
Q 11.71875 -1.953125 23.234375 2.140625 
Q 34.765625 6.25 42.96875 13.671875 
Q 29.296875 27.734375 23.4375 53.90625 
L 19.53125 53.90625 
z
M 31.640625 53.515625 
Q 34.765625 32.421875 48.4375 18.75 
Q 60.9375 33.984375 64.0625 53.515625 
L 31.640625 53.515625 
z
M 44.53125 82.03125 
Q 48.828125 75.390625 54.6875 65.234375 
Q 51.5625 64.453125 47.65625 61.328125 
Q 42.1875 71.484375 37.890625 78.125 
Q 40.625 78.90625 44.53125 82.03125 
z
" id="SimHei-25991"/>
      <path d="M 28.515625 67.1875 
Q 28.515625 74.609375 28.125 80.859375 
L 35.9375 80.859375 
Q 35.546875 74.21875 35.546875 67.1875 
L 44.921875 67.1875 
Q 51.171875 67.1875 57.421875 67.578125 
L 57.421875 60.9375 
Q 51.171875 61.328125 45.3125 61.328125 
L 35.546875 61.328125 
L 35.546875 51.953125 
L 55.859375 51.953125 
Q 55.46875 46.09375 55.46875 40.234375 
L 55.46875 3.125 
Q 55.46875 -3.515625 51.75 -5.078125 
Q 48.046875 -6.640625 42.578125 -7.421875 
Q 42.1875 -3.125 39.453125 0.78125 
Q 46.875 0 48.046875 1.5625 
Q 49.21875 3.125 49.21875 8.984375 
L 49.21875 46.484375 
L 14.84375 46.484375 
L 14.84375 -7.421875 
L 8.203125 -7.421875 
Q 8.59375 -0.390625 8.59375 8.59375 
L 8.59375 39.84375 
Q 8.59375 46.09375 8.203125 51.953125 
L 28.515625 51.953125 
L 28.515625 61.328125 
L 18.75 61.328125 
Q 11.71875 61.328125 3.90625 60.9375 
L 3.90625 67.578125 
Q 11.71875 67.1875 18.75 67.1875 
z
M 69.921875 51.953125 
Q 69.921875 71.875 68.75 81.640625 
Q 73.828125 80.859375 76.953125 80.859375 
Q 76.5625 76.171875 76.5625 51.953125 
L 84.765625 51.953125 
Q 89.453125 51.953125 94.53125 52.34375 
L 94.53125 45.703125 
Q 89.453125 46.09375 84.765625 46.09375 
L 78.515625 46.09375 
Q 78.90625 33.984375 83.203125 19.328125 
Q 87.5 4.6875 96.875 -3.515625 
Q 92.1875 -5.46875 89.453125 -9.375 
Q 81.640625 0.390625 78.515625 11.125 
Q 75.390625 21.875 74.609375 31.25 
Q 71.875 13.671875 68.359375 5.078125 
Q 64.84375 -3.515625 61.328125 -10.15625 
Q 58.203125 -7.421875 53.515625 -6.640625 
Q 58.59375 -1.171875 63.078125 12.296875 
Q 67.578125 25.78125 69.53125 46.09375 
Q 64.0625 46.09375 58.203125 45.703125 
L 58.203125 52.34375 
Q 65.234375 51.953125 69.921875 51.953125 
z
M 35.15625 19.140625 
Q 41.015625 19.140625 46.09375 19.53125 
L 46.09375 12.890625 
Q 41.015625 13.28125 35.15625 13.28125 
L 35.15625 -3.125 
L 28.125 -3.125 
L 28.125 13.28125 
Q 21.09375 13.28125 17.1875 12.890625 
L 17.1875 19.53125 
Q 21.484375 19.140625 28.125 19.140625 
L 28.125 25.78125 
Q 21.484375 25.78125 16.796875 25.390625 
L 16.796875 31.640625 
Q 20.703125 31.25 27.734375 31.25 
L 33.203125 31.25 
Q 35.9375 40.625 36.328125 44.140625 
Q 39.0625 42.96875 43.359375 41.796875 
Q 41.40625 39.84375 39.0625 31.25 
Q 42.1875 31.25 46.09375 31.640625 
L 46.09375 25.390625 
Q 40.625 25.78125 35.15625 25.78125 
z
M 86.328125 74.609375 
Q 87.890625 72.265625 92.578125 61.71875 
Q 87.890625 60.15625 85.9375 58.59375 
Q 82.421875 67.96875 80.078125 71.484375 
Q 83.203125 72.65625 86.328125 74.609375 
z
M 26.953125 43.75 
Q 28.125 39.453125 29.6875 33.59375 
Q 25.78125 32.8125 23.828125 31.640625 
Q 22.65625 37.890625 21.09375 41.796875 
Q 24.21875 43.359375 26.953125 43.75 
z
" id="SimHei-29486"/>
      <path d="M 44.140625 -8.203125 
L 19.53125 -8.203125 
L 19.53125 78.90625 
L 44.140625 78.90625 
L 44.140625 72.65625 
L 26.171875 72.65625 
L 26.171875 -1.953125 
L 44.140625 -1.953125 
z
" id="SimHei-91"/>
      <path d="M 29.296875 -8.203125 
L 4.6875 -8.203125 
L 4.6875 -1.953125 
L 22.65625 -1.953125 
L 22.65625 72.65625 
L 4.6875 72.65625 
L 4.6875 78.90625 
L 29.296875 78.90625 
z
" id="SimHei-93"/>
     </defs>
     <g transform="translate(300.72 254.326187)scale(0.1 -0.1)">
      <use xlink:href="#SimHei-25991"/>
      <use x="100" xlink:href="#SimHei-29486"/>
      <use x="200" xlink:href="#SimHei-91"/>
      <use x="250" xlink:href="#SimHei-50"/>
      <use x="300" xlink:href="#SimHei-48"/>
      <use x="350" xlink:href="#SimHei-93"/>
     </g>
    </g>
    <g id="line2d_39">
     <path d="M 272.72 265.162125 
L 292.72 265.162125 
" style="fill:none;stroke:#008000;stroke-dasharray:5.55,2.4;stroke-dashoffset:0;stroke-width:1.5;"/>
    </g>
    <g id="line2d_40">
     <g>
      <use style="fill:#008000;stroke:#008000;stroke-linejoin:miter;" x="282.72" xlink:href="#m53ca15c86e" y="265.162125"/>
     </g>
    </g>
    <g id="text_32">
     <!-- 文献[20]+图像主体检测 -->
     <defs>
      <path d="M 46.875 33.203125 
L 27.734375 33.203125 
L 27.734375 14.0625 
L 21.09375 14.0625 
L 21.09375 33.203125 
L 1.953125 33.203125 
L 1.953125 39.453125 
L 21.09375 39.453125 
L 21.09375 58.59375 
L 27.734375 58.59375 
L 27.734375 39.453125 
L 46.875 39.453125 
z
" id="SimHei-43"/>
      <path d="M 90.625 77.734375 
Q 90.234375 67.96875 90.234375 56.25 
L 90.234375 14.453125 
Q 90.234375 2.34375 90.625 -9.375 
L 82.8125 -9.375 
L 82.8125 -4.296875 
L 17.578125 -4.296875 
L 17.578125 -10.15625 
L 9.765625 -10.15625 
Q 10.15625 1.953125 10.15625 14.84375 
L 10.15625 56.25 
Q 10.15625 67.578125 9.765625 77.734375 
L 90.625 77.734375 
z
M 82.8125 2.34375 
L 82.8125 71.484375 
L 17.578125 71.484375 
L 17.578125 2.34375 
z
M 50.390625 66.40625 
Q 48.046875 64.0625 46.09375 61.328125 
L 72.265625 61.328125 
Q 70.703125 57.8125 67.1875 52.734375 
Q 63.671875 47.65625 56.25 40.625 
Q 67.96875 34.765625 79.296875 33.59375 
Q 76.5625 30.078125 74.609375 26.171875 
Q 60.15625 30.46875 50.390625 36.71875 
Q 39.0625 29.296875 26.171875 25.78125 
Q 25 29.296875 21.875 32.421875 
Q 34.375 34.375 44.921875 40.625 
Q 39.453125 45.703125 37.109375 49.21875 
Q 33.59375 45.3125 29.6875 41.40625 
Q 26.953125 44.53125 23.828125 46.09375 
Q 30.46875 51.5625 35.15625 58.390625 
Q 39.84375 65.234375 41.796875 69.921875 
Q 45.703125 67.96875 50.390625 66.40625 
z
M 38.28125 19.921875 
Q 55.46875 14.84375 64.0625 11.328125 
Q 62.109375 8.203125 60.15625 4.6875 
Q 44.140625 11.328125 35.546875 13.28125 
Q 37.109375 16.40625 38.28125 19.921875 
z
M 45.703125 32.03125 
Q 58.984375 26.5625 63.671875 25 
Q 61.71875 21.875 60.15625 17.96875 
Q 46.875 24.21875 42.1875 25.78125 
Q 44.140625 28.515625 45.703125 32.03125 
z
M 41.015625 53.90625 
Q 46.875 47.265625 51.171875 44.53125 
Q 56.25 48.4375 60.546875 55.078125 
L 41.796875 55.078125 
L 41.015625 53.90625 
z
" id="SimHei-22270"/>
      <path d="M 59.375 78.515625 
Q 55.859375 76.171875 52.734375 71.484375 
L 77.734375 71.484375 
Q 75.78125 67.578125 71.875 59.375 
L 89.453125 59.375 
Q 89.0625 53.515625 89.0625 49.21875 
Q 89.0625 44.921875 89.453125 39.84375 
L 61.71875 39.84375 
Q 59.375 37.890625 57.8125 36.328125 
Q 62.5 32.8125 66.015625 27.34375 
Q 74.609375 31.640625 80.46875 37.5 
Q 82.03125 35.15625 86.71875 32.03125 
Q 82.03125 29.296875 77.34375 26.171875 
Q 82.8125 11.328125 94.53125 5.859375 
Q 89.453125 3.125 87.890625 0.390625 
Q 76.953125 8.984375 71.875 23.828125 
Q 71.09375 23.046875 68.75 21.875 
Q 70.703125 17.1875 71.09375 11.90625 
Q 71.484375 6.640625 70.703125 1.5625 
Q 69.921875 -3.515625 66.203125 -6.640625 
Q 62.5 -9.765625 55.078125 -10.9375 
Q 54.296875 -7.03125 51.171875 -3.125 
Q 60.546875 -3.515625 62.890625 0.578125 
Q 65.234375 4.6875 64.0625 14.453125 
Q 49.609375 1.5625 35.9375 -4.6875 
Q 34.765625 -0.78125 30.46875 1.5625 
Q 45.3125 5.859375 61.71875 20.703125 
Q 60.546875 23.828125 59.375 25.78125 
Q 46.09375 13.671875 34.375 8.203125 
Q 32.421875 11.71875 29.296875 14.0625 
Q 42.1875 17.578125 55.46875 30.078125 
L 52.734375 32.8125 
Q 42.1875 25.78125 34.375 22.265625 
Q 32.8125 26.171875 29.296875 28.90625 
Q 43.75 33.203125 52.34375 39.84375 
L 37.109375 39.84375 
Q 37.5 43.75 37.5 54.6875 
Q 35.9375 52.734375 33.59375 50.78125 
Q 31.25 53.515625 27.734375 55.859375 
Q 34.375 60.9375 40.625 68.15625 
Q 46.875 75.390625 49.609375 82.421875 
Q 55.859375 79.296875 59.375 78.515625 
z
M 31.640625 77.734375 
Q 28.515625 74.609375 23.4375 59.765625 
L 23.4375 9.765625 
Q 23.4375 -1.5625 23.828125 -8.59375 
L 16.015625 -8.59375 
Q 16.796875 -1.171875 16.796875 9.375 
L 16.796875 47.65625 
Q 11.71875 39.453125 9.375 35.546875 
Q 5.859375 39.0625 3.125 41.015625 
Q 8.59375 46.875 13.671875 57.421875 
Q 18.75 67.96875 21.875 81.640625 
Q 25.390625 80.078125 31.640625 77.734375 
z
M 82.03125 45.3125 
L 82.03125 53.90625 
L 66.015625 53.90625 
Q 64.84375 49.609375 63.28125 45.3125 
z
M 64.453125 59.375 
Q 65.625 62.109375 67.1875 66.015625 
L 48.828125 66.015625 
Q 46.09375 63.28125 42.96875 59.375 
z
M 56.25 45.3125 
Q 57.8125 50 58.984375 53.90625 
L 44.53125 53.90625 
L 44.53125 45.3125 
z
" id="SimHei-20687"/>
      <path d="M 74.21875 60.15625 
Q 80.46875 60.15625 89.84375 60.546875 
L 89.84375 53.125 
Q 80.46875 53.515625 74.21875 53.515625 
L 53.515625 53.515625 
L 53.515625 33.984375 
L 69.140625 33.984375 
Q 75.390625 33.984375 83.984375 34.375 
L 83.984375 26.953125 
Q 75.390625 27.34375 69.140625 27.34375 
L 53.515625 27.34375 
L 53.515625 2.34375 
L 78.125 2.34375 
Q 85.15625 2.34375 94.53125 2.734375 
L 94.53125 -4.6875 
Q 85.15625 -4.296875 78.125 -4.296875 
L 5.46875 -4.296875 
L 5.46875 3.125 
Q 14.84375 2.34375 22.265625 2.34375 
L 45.3125 2.34375 
L 45.3125 27.34375 
L 30.078125 27.34375 
Q 23.828125 27.34375 15.234375 26.953125 
L 15.234375 34.375 
Q 24.609375 33.984375 30.078125 33.984375 
L 45.3125 33.984375 
L 45.3125 53.515625 
L 25.78125 53.515625 
Q 17.578125 53.515625 9.765625 53.125 
L 9.765625 60.546875 
Q 18.359375 60.15625 26.171875 60.15625 
z
M 49.609375 60.9375 
Q 44.921875 67.96875 37.5 76.171875 
Q 41.40625 78.90625 43.75 81.25 
Q 51.953125 71.875 56.640625 65.234375 
Q 54.296875 64.0625 49.609375 60.9375 
z
" id="SimHei-20027"/>
      <path d="M 57.03125 60.15625 
Q 57.03125 74.21875 56.640625 80.078125 
L 64.453125 80.078125 
Q 64.0625 74.609375 64.0625 60.15625 
L 81.25 60.15625 
Q 89.0625 60.15625 92.578125 60.546875 
L 92.578125 53.515625 
Q 89.0625 53.90625 81.25 53.90625 
L 70.703125 53.90625 
Q 76.953125 28.90625 96.875 18.75 
Q 92.578125 16.40625 90.234375 12.109375 
Q 69.140625 28.125 64.0625 53.515625 
L 64.0625 16.015625 
Q 75.390625 16.015625 78.90625 16.40625 
L 78.90625 9.375 
Q 75.390625 9.765625 64.0625 9.765625 
Q 64.0625 1.171875 64.453125 -8.984375 
L 56.640625 -8.984375 
Q 57.03125 1.5625 57.03125 9.765625 
Q 50 9.765625 42.1875 9.375 
L 42.1875 16.40625 
Q 50 16.015625 57.03125 16.015625 
L 57.03125 53.90625 
Q 52.734375 28.125 31.25 10.15625 
Q 28.90625 13.671875 24.21875 16.015625 
Q 44.53125 29.296875 50 53.90625 
L 41.796875 53.90625 
Q 35.546875 53.90625 30.859375 53.515625 
L 30.859375 60.546875 
Q 35.546875 60.15625 41.796875 60.15625 
z
M 31.25 76.5625 
Q 28.515625 73.046875 23.828125 58.984375 
L 23.828125 8.984375 
Q 23.828125 -3.125 24.21875 -8.59375 
L 16.40625 -8.59375 
Q 16.796875 -3.515625 16.796875 8.59375 
L 16.796875 45.3125 
Q 14.84375 41.015625 8.984375 32.03125 
Q 7.03125 35.546875 3.515625 37.890625 
Q 8.203125 42.578125 14.453125 56.4375 
Q 20.703125 70.3125 22.265625 80.078125 
Q 26.5625 78.125 31.25 76.5625 
z
" id="SimHei-20307"/>
      <path d="M 19.53125 71.484375 
Q 19.53125 75.78125 19.140625 80.46875 
L 27.34375 80.46875 
Q 26.5625 75.78125 26.5625 71.484375 
L 26.5625 60.9375 
L 30.46875 60.9375 
Q 32.8125 60.9375 38.671875 61.328125 
L 38.671875 53.90625 
Q 32.03125 54.296875 29.296875 54.296875 
L 26.5625 54.296875 
L 26.5625 36.328125 
Q 29.6875 37.5 32.03125 39.453125 
Q 33.203125 37.5 35.15625 34.171875 
Q 37.109375 30.859375 39.0625 27.34375 
Q 36.328125 26.171875 32.421875 23.4375 
Q 31.25 25.390625 29.875 28.703125 
Q 28.515625 32.03125 26.5625 33.984375 
L 26.5625 4.6875 
Q 26.5625 -2.734375 26.953125 -9.765625 
L 19.140625 -9.765625 
Q 19.53125 -3.515625 19.53125 4.6875 
L 19.53125 35.9375 
Q 17.96875 32.03125 14.84375 25.578125 
Q 11.71875 19.140625 8.984375 14.84375 
Q 6.25 18.75 2.734375 20.703125 
Q 6.25 24.609375 8.59375 29.09375 
Q 10.9375 33.59375 13.078125 38.078125 
Q 15.234375 42.578125 16.59375 46.671875 
Q 17.96875 50.78125 18.75 54.296875 
L 14.84375 54.296875 
Q 12.890625 54.296875 6.640625 53.90625 
L 6.640625 61.328125 
Q 12.5 60.9375 14.84375 60.9375 
L 19.53125 60.9375 
z
M 80.46875 47.265625 
Q 73.046875 53.515625 69.71875 58 
Q 66.40625 62.5 62.109375 69.53125 
Q 58.984375 62.890625 56.25 58.390625 
Q 53.515625 53.90625 50.390625 50 
L 75.78125 50 
L 75.78125 42.96875 
Q 73.046875 43.359375 70.3125 43.359375 
L 58.59375 43.359375 
Q 53.90625 43.359375 49.21875 42.96875 
L 49.21875 48.046875 
L 44.921875 43.75 
Q 42.1875 40.625 39.84375 38.28125 
Q 37.5 41.796875 32.8125 44.140625 
Q 38.671875 48.046875 42.96875 52.921875 
Q 47.265625 57.8125 50.1875 62.296875 
Q 53.125 66.796875 55.265625 71.671875 
Q 57.421875 76.5625 58.203125 80.859375 
Q 63.28125 79.6875 67.578125 78.515625 
Q 66.015625 76.5625 65.625 75.390625 
Q 73.046875 62.109375 81.25 56.828125 
Q 89.453125 51.5625 96.09375 49.21875 
Q 92.1875 45.703125 91.40625 41.015625 
Q 87.5 42.96875 83.984375 45.109375 
Q 80.46875 47.265625 73.046875 53.515625 
z
M 88.671875 34.765625 
Q 84.375 25.78125 81.640625 18.546875 
Q 78.90625 11.328125 75 2.734375 
L 81.640625 2.734375 
Q 87.5 2.734375 93.359375 3.125 
L 93.359375 -3.90625 
Q 88.671875 -3.515625 81.640625 -3.515625 
L 48.828125 -3.515625 
Q 37.890625 -3.515625 34.375 -3.90625 
L 34.375 3.125 
Q 38.28125 2.734375 49.21875 2.734375 
L 67.578125 2.734375 
Q 70.3125 8.203125 72.84375 15.421875 
Q 75.390625 22.65625 76.75 27.140625 
Q 78.125 31.640625 79.296875 37.890625 
Q 84.375 35.9375 88.671875 34.765625 
z
M 46.875 34.375 
Q 49.21875 28.90625 51.75 22.84375 
Q 54.296875 16.796875 56.25 11.328125 
Q 53.125 10.15625 48.4375 7.8125 
Q 46.484375 14.84375 44.921875 18.75 
Q 43.359375 22.65625 39.453125 30.46875 
Q 44.140625 32.8125 46.875 34.375 
z
M 62.5 37.890625 
Q 64.453125 32.421875 66.796875 25.78125 
Q 69.140625 19.140625 70.3125 16.015625 
Q 66.015625 15.234375 62.5 13.28125 
Q 60.9375 19.53125 59.171875 24.609375 
Q 57.421875 29.6875 54.6875 34.765625 
Q 59.375 36.71875 62.5 37.890625 
z
" id="SimHei-26816"/>
      <path d="M 62.890625 73.828125 
Q 62.5 69.921875 62.5 62.5 
L 62.5 34.765625 
Q 62.5 27.734375 62.890625 21.09375 
L 55.46875 21.09375 
L 55.46875 67.578125 
L 36.71875 67.578125 
L 36.71875 20.703125 
L 29.6875 20.703125 
Q 30.078125 27.734375 30.078125 34.765625 
L 30.078125 62.5 
Q 30.078125 65.625 29.6875 73.828125 
L 62.890625 73.828125 
z
M 92.1875 79.296875 
Q 91.796875 75 91.796875 68.359375 
L 91.796875 0 
Q 91.796875 -5.078125 88.28125 -6.640625 
Q 84.765625 -8.203125 77.734375 -9.375 
Q 76.953125 -5.078125 74.609375 -0.78125 
Q 80.078125 -0.78125 82.21875 -0.390625 
Q 84.375 0 84.375 3.90625 
L 84.375 68.359375 
Q 84.375 74.609375 83.984375 79.296875 
L 92.1875 79.296875 
z
M 51.171875 58.203125 
Q 50.390625 53.125 50 36.328125 
Q 49.609375 19.53125 44.328125 8.59375 
Q 39.0625 -2.34375 32.421875 -9.375 
Q 28.90625 -6.25 25 -5.078125 
Q 34.375 3.90625 38.671875 15.03125 
Q 42.96875 26.171875 43.15625 38.671875 
Q 43.359375 51.171875 42.578125 59.375 
Q 46.875 58.59375 51.171875 58.203125 
z
M 77.34375 66.796875 
Q 76.953125 62.5 76.953125 55.859375 
L 76.953125 28.515625 
Q 76.953125 20.3125 77.34375 13.28125 
L 69.53125 13.28125 
Q 69.921875 17.96875 69.921875 28.515625 
L 69.921875 55.859375 
Q 69.921875 62.5 69.53125 66.796875 
L 77.34375 66.796875 
z
M 26.5625 26.171875 
Q 21.484375 16.796875 17.375 7.609375 
Q 13.28125 -1.5625 11.328125 -6.25 
Q 7.8125 -3.125 3.125 -0.390625 
Q 7.421875 4.6875 11.90625 13.28125 
Q 16.40625 21.875 19.53125 31.25 
Q 23.046875 28.515625 26.5625 26.171875 
z
M 53.125 16.40625 
Q 59.375 10.15625 67.1875 -1.953125 
Q 64.0625 -3.515625 60.546875 -7.03125 
Q 54.296875 4.296875 47.265625 11.71875 
Q 50.390625 13.671875 53.125 16.40625 
z
M 9.375 55.078125 
Q 17.578125 48.828125 23.4375 43.359375 
Q 20.3125 40.234375 17.96875 37.109375 
Q 12.890625 43.359375 4.6875 49.21875 
Q 7.03125 51.5625 9.375 55.078125 
z
M 21.09375 62.5 
Q 14.84375 68.359375 7.421875 73.046875 
Q 9.765625 75.78125 12.109375 78.90625 
Q 20.3125 73.4375 26.171875 68.359375 
Q 23.4375 66.40625 21.09375 62.5 
z
" id="SimHei-27979"/>
     </defs>
     <g transform="translate(300.72 268.662125)scale(0.1 -0.1)">
      <use xlink:href="#SimHei-25991"/>
      <use x="100" xlink:href="#SimHei-29486"/>
      <use x="200" xlink:href="#SimHei-91"/>
      <use x="250" xlink:href="#SimHei-50"/>
      <use x="300" xlink:href="#SimHei-48"/>
      <use x="350" xlink:href="#SimHei-93"/>
      <use x="400" xlink:href="#SimHei-43"/>
      <use x="450" xlink:href="#SimHei-22270"/>
      <use x="550" xlink:href="#SimHei-20687"/>
      <use x="650" xlink:href="#SimHei-20027"/>
      <use x="750" xlink:href="#SimHei-20307"/>
      <use x="850" xlink:href="#SimHei-26816"/>
      <use x="950" xlink:href="#SimHei-27979"/>
     </g>
    </g>
    <g id="line2d_41">
     <path d="M 272.72 279.498062 
L 292.72 279.498062 
" style="fill:none;stroke:#bfbf00;stroke-dasharray:5.55,2.4;stroke-dashoffset:0;stroke-width:1.5;"/>
    </g>
    <g id="line2d_42">
     <g>
      <use style="fill:#bfbf00;stroke:#bfbf00;stroke-linejoin:miter;" x="282.72" xlink:href="#me2fe5e6a08" y="279.498062"/>
     </g>
    </g>
    <g id="text_33">
     <!-- 本文方法 -->
     <defs>
      <path d="M 46.09375 61.328125 
L 46.09375 69.140625 
Q 46.09375 75.390625 45.703125 80.859375 
L 54.296875 80.859375 
Q 53.90625 76.5625 53.90625 69.53125 
L 53.90625 61.328125 
L 75.78125 61.328125 
Q 82.421875 61.328125 91.40625 61.71875 
L 91.40625 54.296875 
Q 82.8125 54.6875 76.171875 54.6875 
L 60.15625 54.6875 
Q 65.625 36.71875 75.96875 26.359375 
Q 86.328125 16.015625 94.921875 12.5 
Q 91.40625 9.765625 88.28125 5.078125 
Q 75 14.0625 66.59375 25.578125 
Q 58.203125 37.109375 53.90625 52.34375 
L 53.90625 15.625 
L 58.984375 15.625 
Q 65.234375 15.625 71.875 16.015625 
L 71.875 8.59375 
Q 65.234375 8.984375 58.59375 8.984375 
L 53.90625 8.984375 
Q 53.90625 0 54.296875 -9.375 
L 45.703125 -9.375 
Q 46.09375 0 46.09375 8.984375 
L 41.015625 8.984375 
Q 34.765625 8.984375 28.515625 8.59375 
L 28.515625 16.015625 
Q 34.765625 15.625 41.015625 15.625 
L 46.09375 15.625 
L 46.09375 51.5625 
Q 39.84375 35.546875 32.21875 24.609375 
Q 24.609375 13.671875 11.71875 2.734375 
Q 8.59375 7.03125 4.296875 8.984375 
Q 17.1875 16.796875 25.78125 28.515625 
Q 34.375 40.234375 39.453125 54.6875 
L 22.265625 54.6875 
Q 16.015625 54.6875 8.984375 54.296875 
L 8.984375 61.71875 
Q 16.015625 61.328125 21.875 61.328125 
z
" id="SimHei-26412"/>
      <path d="M 6.640625 62.109375 
Q 12.890625 61.71875 20.3125 61.71875 
L 78.515625 61.71875 
Q 87.890625 61.71875 93.75 62.109375 
L 93.75 54.296875 
Q 88.671875 54.6875 79.6875 54.6875 
L 39.453125 54.6875 
Q 39.453125 50.390625 39.0625 39.0625 
L 82.8125 39.0625 
Q 82.03125 33.984375 81.25 24.21875 
L 78.90625 2.734375 
Q 78.125 -4.296875 72.265625 -6.4375 
Q 66.40625 -8.59375 55.078125 -9.765625 
Q 54.6875 -4.6875 51.953125 -0.78125 
Q 60.9375 -1.171875 65.625 0 
Q 70.3125 1.171875 71.484375 6.640625 
L 73.828125 32.03125 
L 38.671875 32.03125 
Q 37.109375 21.09375 33.78125 13.671875 
Q 30.46875 6.25 24.609375 0 
Q 18.75 -6.25 12.890625 -10.9375 
Q 11.328125 -8.59375 5.859375 -5.46875 
Q 10.9375 -2.734375 16.59375 3.125 
Q 22.265625 8.984375 25.96875 16.40625 
Q 29.6875 23.828125 30.65625 32.8125 
Q 31.640625 41.796875 31.640625 54.6875 
L 20.703125 54.6875 
Q 12.109375 54.6875 6.640625 54.296875 
z
M 48.046875 63.671875 
Q 44.53125 71.484375 40.234375 78.125 
Q 43.75 80.078125 47.265625 82.421875 
Q 51.5625 75.78125 55.859375 67.96875 
Q 51.953125 66.40625 48.046875 63.671875 
z
" id="SimHei-26041"/>
      <path d="M 94.921875 -4.6875 
Q 91.40625 -6.640625 87.890625 -9.765625 
Q 85.15625 -4.6875 83.203125 -1.953125 
Q 70.703125 -2.734375 56.046875 -4.09375 
Q 41.40625 -5.46875 36.328125 -7.03125 
Q 35.15625 -2.34375 33.203125 1.171875 
Q 38.28125 2.734375 44.140625 11.328125 
Q 50 19.921875 54.6875 32.8125 
L 43.75 32.8125 
Q 36.71875 32.8125 30.46875 32.421875 
L 30.46875 39.453125 
Q 36.71875 39.0625 44.140625 39.0625 
L 58.203125 39.0625 
L 58.203125 56.25 
L 49.21875 56.25 
Q 41.796875 56.25 36.328125 55.859375 
L 36.328125 62.890625 
Q 42.578125 62.5 48.828125 62.5 
L 58.203125 62.5 
Q 58.203125 73.4375 57.8125 80.46875 
L 66.40625 80.46875 
Q 66.015625 74.609375 66.015625 62.5 
L 77.734375 62.5 
Q 83.59375 62.5 89.84375 62.890625 
L 89.84375 55.859375 
Q 83.59375 56.25 78.515625 56.25 
L 66.015625 56.25 
L 66.015625 39.0625 
L 80.078125 39.0625 
Q 87.109375 39.0625 94.140625 39.453125 
L 94.140625 32.421875 
Q 87.109375 32.8125 80.078125 32.8125 
L 60.15625 32.8125 
L 64.0625 30.46875 
Q 61.71875 27.734375 56.640625 18.75 
Q 51.5625 9.765625 45.3125 1.5625 
Q 62.5 2.34375 79.296875 3.515625 
Q 74.609375 10.546875 69.53125 16.015625 
Q 72.65625 18.359375 75.390625 21.09375 
Q 82.421875 12.5 94.921875 -4.6875 
z
M 4.6875 -3.90625 
Q 10.15625 1.5625 15.8125 9.765625 
Q 21.484375 17.96875 26.953125 26.953125 
Q 28.90625 23.4375 32.421875 21.484375 
Q 28.90625 16.796875 23.4375 7.609375 
Q 17.96875 -1.5625 13.28125 -9.765625 
Q 10.15625 -6.640625 4.6875 -3.90625 
z
M 10.546875 53.515625 
Q 18.75 48.4375 28.125 41.40625 
Q 24.609375 39.0625 21.875 35.15625 
Q 14.453125 41.796875 5.46875 47.65625 
Q 8.203125 50 10.546875 53.515625 
z
M 16.40625 76.5625 
Q 24.21875 71.484375 32.8125 64.453125 
Q 29.6875 62.109375 26.953125 58.203125 
Q 19.53125 65.234375 11.328125 70.703125 
Q 14.0625 73.4375 16.40625 76.5625 
z
" id="SimHei-27861"/>
     </defs>
     <g transform="translate(300.72 282.998062)scale(0.1 -0.1)">
      <use xlink:href="#SimHei-26412"/>
      <use x="100" xlink:href="#SimHei-25991"/>
      <use x="200" xlink:href="#SimHei-26041"/>
      <use x="300" xlink:href="#SimHei-27861"/>
     </g>
    </g>
    <g id="line2d_43">
     <path d="M 272.72 293.834 
L 292.72 293.834 
" style="fill:none;stroke:#0000ff;stroke-dasharray:5.55,2.4;stroke-dashoffset:0;stroke-width:1.5;"/>
    </g>
    <g id="line2d_44">
     <g>
      <use style="fill:#0000ff;stroke:#0000ff;stroke-linejoin:miter;" x="282.72" xlink:href="#m7140d72cce" y="293.834"/>
     </g>
    </g>
    <g id="text_34">
     <!-- 本文方法+图像主体检测 -->
     <g transform="translate(300.72 297.334)scale(0.1 -0.1)">
      <use xlink:href="#SimHei-26412"/>
      <use x="100" xlink:href="#SimHei-25991"/>
      <use x="200" xlink:href="#SimHei-26041"/>
      <use x="300" xlink:href="#SimHei-27861"/>
      <use x="400" xlink:href="#SimHei-43"/>
      <use x="450" xlink:href="#SimHei-22270"/>
      <use x="550" xlink:href="#SimHei-20687"/>
      <use x="650" xlink:href="#SimHei-20027"/>
      <use x="750" xlink:href="#SimHei-20307"/>
      <use x="850" xlink:href="#SimHei-26816"/>
      <use x="950" xlink:href="#SimHei-27979"/>
     </g>
    </g>
   </g>
  </g>
 </g>
 <defs>
  <clipPath id="pb5fbcb36f6">
   <rect height="266.112" width="357.12" x="57.6" y="41.472"/>
  </clipPath>
 </defs>
</svg>
